# xmcd
#
# Track frame offsets:
#	150
#	14968
#	28059
#	42357
#	57289
#	70404
#	83894
#	96773
#	109460
#	122772
#	135930
#	151199
#	167915
#	181537
#	197890
#
# Disc length: 2837 seconds
#
# Revision: 1
# Processed by: cddbd v1.5.2PL0 Copyright (c) Steve Scherf et al.
# Submitted via: audiograbber 1.83.01
#
DISCID=ce0b130f
DTITLE=Truck Stop - Das große Jubiläum - 06 - Unsere coolsten Trucker Songs
DYEAR=2018
DGENRE=Country
TTITLE0=On The Road
TTITLE1=Trucker, Cowboy, Mann
TTITLE2=Big White Diesel
TTITLE3=Hinterm Lenker
TTITLE4=Der Trabbi und der Truck
TTITLE5=Hinnerk, der Supertrucker
TTITLE6=Ich bin der Skipper
TTITLE7=Cops and Trucker
TTITLE8=Fahr einfach los
TTITLE9=Durch Sachsen ohne Anhalt
TTITLE10=1000 gute Gründe für 'ne Selter
TTITLE11=Made In Germany
TTITLE12=Tausend Meilen
TTITLE13=A7 Blues
TTITLE14=Ich will nach Hause
EXTD=
EXTT0=
EXTT1=
EXTT2=
EXTT3=
EXTT4=
EXTT5=
EXTT6=
EXTT7=
EXTT8=
EXTT9=
EXTT10=
EXTT11=
EXTT12=
EXTT13=
EXTT14=
PLAYORDER=
